<svg width="40" height="41" viewBox="0 0 40 41" fill="none" xmlns="http://www.w3.org/2000/svg">
<path d="M0 30.9384H9.48718V9.65635H30.7692V0.169174H4.74359C1.5812 0.169174 0 1.6649 0 4.65635" fill="#7F5539"/>
<path d="M30.5128 0.169174V9.91276H40V4.65635C40 1.6649 38.5043 0.169174 35.5128 0.169174" fill="#5C3D29"/>
<path d="M30.5128 9.65635H40V30.682H30.5128" fill="#DDB892"/>
<path d="M0 30.682V35.682C0 38.6735 1.49573 40.1692 4.48718 40.1692H9.74359V30.682" fill="#794F35"/>
<path d="M9.48718 30.682H30.5128V40.1692H9.48718" fill="#9C6644"/>
<path d="M30.5128 40.1692V30.682H40" fill="#B08969"/>
<path d="M13.3333 16.7076C13.4671 16.1936 13.7623 15.7236 14.1853 15.351C14.6083 14.9785 15.1421 14.7183 15.726 14.6001C16.31 14.4819 16.9206 14.5105 17.4886 14.6825C18.0565 14.8545 18.5588 15.1631 18.9385 15.5732C19.3183 15.9833 19.5601 16.4784 19.6365 17.0023C19.7129 17.5261 19.6209 18.0577 19.3708 18.5365C19.1208 19.0153 18.7228 19.4221 18.2221 19.7108C17.7214 19.9994 17.1381 20.1582 16.5385 20.1692M16.5385 20.1692H15.3846M16.5385 20.1692C17.1365 20.1859 17.718 20.3496 18.2172 20.6417C18.7164 20.9339 19.1133 21.3427 19.3631 21.8221C19.6129 22.3015 19.7056 22.8322 19.6306 23.3543C19.5557 23.8763 19.3161 24.3688 18.939 24.7761C18.562 25.1833 18.0624 25.489 17.4969 25.6586C16.9315 25.8283 16.3226 25.855 15.7393 25.7358C15.156 25.6166 14.6215 25.3563 14.1963 24.9843C13.7711 24.6122 13.4722 24.1434 13.3333 23.6307M21.7949 16.964L25.2564 14.5282H25.7692V13.6307V26.8358" stroke="#7F5539" stroke-width="2" stroke-linejoin="bevel"/>
</svg>
