<svg width="40" height="41" viewBox="0 0 40 41" fill="none" xmlns="http://www.w3.org/2000/svg">
<path d="M20 16.5732L14.606 20.1692L20 23.7652L25.394 20.1692L20 16.5732ZM29 17.7652L34.394 14.1692L22 5.90718V13.0992L29 17.7652ZM36 17.9052L32.606 20.1692L36 22.4312V17.9092V17.9052ZM29 22.5732L22 27.2392V34.4312L34.394 26.1692L29 22.5732ZM18 13.0992V5.90718L5.606 14.1692L11 17.7652L18 13.0992ZM5.606 26.1692L18 34.4312V27.2392L11 22.5732L5.606 26.1692ZM7.394 20.1692L4 17.9072V22.4312L7.394 20.1692ZM2.23988e-08 14.1692C-4.92386e-05 13.84 0.0811558 13.5159 0.23641 13.2256C0.391665 12.9353 0.616168 12.6879 0.89 12.5052L18.89 0.505183C19.2187 0.285905 19.6049 0.168884 20 0.168884C20.3951 0.168884 20.7813 0.285905 21.11 0.505183L39.11 12.5052C39.3838 12.6879 39.6083 12.9353 39.7636 13.2256C39.9188 13.5159 40 13.84 40 14.1692V26.1692C40 26.4984 39.9188 26.8225 39.7636 27.1127C39.6083 27.403 39.3838 27.6505 39.11 27.8332L21.11 39.8332C20.7813 40.0525 20.3951 40.1695 20 40.1695C19.6049 40.1695 19.2187 40.0525 18.89 39.8332L0.89 27.8332C0.616168 27.6505 0.391665 27.403 0.23641 27.1127C0.0811558 26.8225 -4.92386e-05 26.4984 2.23988e-08 26.1692V14.1692Z" fill="#7F5539"/>
</svg>
