<svg width="40" height="41" viewBox="0 0 40 41" fill="none" xmlns="http://www.w3.org/2000/svg">
<path fill-rule="evenodd" clip-rule="evenodd" d="M33.548 6.2726C33.9182 4.12769 34.4612 2.77937 35.0634 2.77649H35.0648C36.187 2.78081 37.0959 7.45814 37.0959 13.2331C37.0959 19.0081 36.1855 23.6898 35.0619 23.6898C34.601 23.6898 34.1775 22.8946 33.8346 21.5621C33.2944 26.4383 32.1723 29.7903 30.8744 29.7903C29.8704 29.7903 28.9686 27.7765 28.3636 24.6016C27.9502 30.6402 26.9101 34.9257 25.6943 34.9257C24.9309 34.9257 24.2351 33.2274 23.7208 30.463C23.1014 36.1703 21.671 40.1692 20.0029 40.1692C18.3348 40.1692 16.9015 36.1718 16.2849 30.463C15.7736 33.2274 15.0778 34.9257 14.3114 34.9257C13.0957 34.9257 12.0585 30.6417 11.6422 24.6016C11.0372 27.7765 10.1383 29.7903 9.13137 29.7903C7.83492 29.7903 6.71132 26.4397 6.17113 21.5621C5.83117 22.8975 5.40478 23.6883 4.94382 23.6883C3.82167 23.6883 2.90982 19.0067 2.90982 13.2317C2.90982 7.4567 3.82022 2.77505 4.94382 2.77505C5.54595 2.77505 6.08614 4.12769 6.45923 6.27116C7.05848 2.57338 8.03083 0.169174 9.13137 0.169174C10.4379 0.169174 11.5687 3.56877 12.1046 8.50539C12.6289 4.91276 13.4226 2.62236 14.3129 2.62236C15.5604 2.62236 16.6206 7.12682 17.0138 13.4118C17.7528 10.1893 18.8217 8.16831 20.0058 8.16831C21.1899 8.16831 22.2587 10.1908 22.9963 13.4118C23.391 7.12826 24.4497 2.62236 25.6972 2.62236C26.586 2.62236 27.3797 4.91276 27.9055 8.50539C28.4399 3.56877 29.5722 0.169174 30.8773 0.169174C31.9721 0.170615 32.9487 2.57482 33.548 6.2726ZM0 12.2046C0 9.62322 0.515702 7.53017 1.15385 7.53017C1.79055 7.53017 2.30769 9.62322 2.30769 12.2046C2.30769 14.786 1.79199 16.8791 1.15385 16.8791C0.517142 16.8791 0 14.786 0 12.2046ZM37.6923 12.2046C37.6923 9.62322 38.208 7.53017 38.8462 7.53017C39.4829 7.53017 40 9.62322 40 12.2046C40 14.786 39.4843 16.8791 38.8462 16.8791C38.208 16.8791 37.6923 14.786 37.6923 12.2046Z" fill="#7F5539"/>
</svg>
