<svg width="40" height="32" viewBox="0 0 40 32" fill="none" xmlns="http://www.w3.org/2000/svg">
<path d="M33.8603 3.46564C31.298 2.29127 28.5756 1.43718 25.7144 0.935404C25.6611 0.935404 25.6077 0.935403 25.5863 0.99946C25.234 1.62935 24.839 2.44073 24.5721 3.0813C21.476 2.62223 18.4333 2.62223 15.4227 3.0813C15.1451 2.41938 14.7501 1.61867 14.3551 0.99946C14.323 0.956756 14.2803 0.924727 14.2269 0.935404C11.7714 1.4265 8.63267 2.3233 6.1131 3.46564C6.09175 3.46564 6.0704 3.48699 6.05972 3.50834C0.82843 11.3019 -0.559464 18.7752 0.187864 26.2485C0.187864 26.2805 0.209216 26.3232 0.241245 26.3552C3.6576 28.8748 6.96719 30.4121 10.2341 31.405C10.2875 31.405 10.3408 31.405 10.3729 31.3623C11.1416 30.3161 11.8248 29.2057 12.4227 28.0314C12.4547 27.9673 12.4227 27.8819 12.348 27.8605C11.2803 27.4335 10.2127 26.9424 9.21985 26.3659C9.14512 26.3232 9.13444 26.2058 9.21985 26.1524C9.43337 25.9922 9.6469 25.8321 9.83907 25.6719C9.87109 25.6399 9.92447 25.6399 9.96718 25.6506C16.5223 28.6399 23.6326 28.6399 30.0383 25.6506C30.081 25.6292 30.1343 25.6399 30.1664 25.6613C30.3692 25.8321 30.5721 25.9922 30.7856 26.1524C30.8603 26.2058 30.8496 26.3232 30.7856 26.3659C29.7927 26.9531 28.7571 27.4335 27.6575 27.8605C27.5828 27.8926 27.5507 27.9673 27.5934 28.042C28.1913 29.2164 28.8852 30.3161 29.6219 31.3516C29.6539 31.3943 29.7073 31.4157 29.7607 31.3943C33.0276 30.3801 36.3478 28.8534 39.7749 26.3445C39.8069 26.3232 39.8283 26.2912 39.8283 26.2378C40.661 17.6008 38.4297 10.1169 33.9137 3.49767C33.9137 3.47632 33.8817 3.45496 33.8603 3.45496V3.46564ZM13.3622 21.7218C11.3337 21.7218 9.7323 19.9068 9.7323 17.6649C9.7323 15.4229 11.3337 13.6079 13.3622 13.6079C15.3906 13.6079 16.9921 15.4229 16.9921 17.6649C16.9921 19.9068 15.3906 21.7218 13.3622 21.7218ZM26.7073 21.7218C24.6789 21.7218 23.0774 19.9068 23.0774 17.6649C23.0774 15.4229 24.6789 13.6079 26.7073 13.6079C28.7358 13.6079 30.3372 15.4229 30.3372 17.6649C30.3372 19.9068 28.7358 21.7218 26.7073 21.7218Z" fill="#7F5539"/>
</svg>
