<svg width="40" height="41" viewBox="0 0 40 41" fill="none" xmlns="http://www.w3.org/2000/svg">
<path d="M21.375 20.1692C21.375 16.9467 23.9225 14.3367 27.0625 14.3367C30.205 14.3367 32.75 16.9442 32.75 20.1692C32.75 23.3917 30.205 26.0017 27.0625 26.0017C23.925 26.0017 21.375 23.3942 21.375 20.1692Z" fill="#DDB892"/>
<path d="M10 31.8367C10 28.6142 12.5475 26.0017 15.6875 26.0017H21.375V31.8367C21.375 35.0567 18.8275 37.6692 15.6875 37.6692C12.5475 37.6692 10 35.0567 10 31.8367Z" fill="#B08969"/>
<path d="M21.375 2.66917V14.3367H27.0625C30.205 14.3367 32.75 11.7242 32.75 8.50167C32.75 5.28167 30.205 2.66917 27.0625 2.66917H21.375Z" fill="#B98664"/>
<path d="M10 8.50167C10 11.7242 12.5475 14.3367 15.6875 14.3367H21.375V2.66917H15.6875C12.5475 2.66917 10 5.28167 10 8.50167Z" fill="#7F5539"/>
<path d="M10 20.1692C10 23.3917 12.5475 26.0017 15.6875 26.0017H21.375V14.3367H15.6875C12.5475 14.3367 10 16.9442 10 20.1692Z" fill="#9C6644"/>
</svg>
