<svg width="40" height="41" viewBox="0 0 40 41" fill="none" xmlns="http://www.w3.org/2000/svg">
<g clip-path="url(#clip0_3_115)">
<path fill-rule="evenodd" clip-rule="evenodd" d="M20 0.169174C31.046 0.169174 40 9.34903 40 20.675C40 29.733 34.276 37.4171 26.334 40.1311C25.32 40.3331 24.96 39.6927 24.96 39.1467C24.96 38.4707 24.984 36.2628 24.984 33.5188C24.984 31.6068 24.344 30.3589 23.626 29.7229C28.08 29.2149 32.76 27.4807 32.76 19.6047C32.76 17.3647 31.984 15.5368 30.7 14.1008C30.908 13.5828 31.594 11.4971 30.504 8.67308C30.504 8.67308 28.828 8.12362 25.01 10.7756C23.412 10.3216 21.7 10.0932 20 10.0852C18.3 10.0932 16.59 10.3216 14.994 10.7756C11.172 8.12362 9.492 8.67308 9.492 8.67308C8.406 11.4971 9.092 13.5828 9.298 14.1008C8.02 15.5368 7.23801 17.3647 7.23801 19.6047C7.23801 27.4607 11.908 29.2215 16.35 29.7395C15.778 30.2515 15.26 31.1547 15.08 32.4807C13.94 33.0047 11.044 33.9116 9.25999 30.7776C9.25999 30.7776 8.202 28.8073 6.194 28.6633C6.194 28.6633 4.244 28.6374 6.058 29.9094C6.058 29.9094 7.368 30.5394 8.278 32.9094C8.278 32.9094 9.45201 36.5693 15.016 35.3293C15.026 37.0433 15.044 38.6587 15.044 39.1467C15.044 39.6887 14.676 40.323 13.678 40.133C5.72999 37.423 0 29.735 0 20.675C0 9.34903 8.956 0.169174 20 0.169174Z" fill="#7F5539"/>
</g>
<defs>
<clipPath id="clip0_3_115">
<rect width="40" height="40" fill="white" transform="translate(0 0.169174)"/>
</clipPath>
</defs>
</svg>
