<svg width="40" height="31" viewBox="0 0 40 31" fill="none" xmlns="http://www.w3.org/2000/svg">
<path d="M9.11111 30.1457V14.3679L0 7.36791V26.8124C0 29.0346 1.11111 30.1457 3.33333 30.1457" fill="#7F5539"/>
<path d="M8.66666 14.2568L20 22.8124L31.3333 14.2568V3.36791L20 11.9235L8.66666 3.36791" fill="#B08969"/>
<path d="M30.8889 30.1457V14.3679L40 7.36791V26.8124C40 29.0346 38.8889 30.1457 36.6667 30.1457" fill="#9C6644"/>
<path d="M0 7.59013L9.11111 14.5901V3.70124L5.77778 1.14569C2.77778 -1.18765 0 1.14569 0 4.03458" fill="#966F4F"/>
<path d="M40 7.59013L30.8889 14.5901V3.70124L34.2222 1.14569C37.2222 -1.18765 40 1.14569 40 4.03458" fill="#DDB892"/>
</svg>
