<svg width="40" height="40" viewBox="0 0 40 40" fill="none" xmlns="http://www.w3.org/2000/svg">
<path d="M14.0938 16.6094C12.2115 19.8697 13.329 24.0394 16.5899 25.923C19.8501 27.8048 24.0205 26.6878 25.9035 23.4269C27.7858 20.1661 26.6683 15.9963 23.4074 14.1133C20.1471 12.231 15.9773 13.348 14.0938 16.6094Z" fill="#7F5539"/>
<path d="M14.6964 29.2025C13.0246 28.2378 11.7181 26.8816 10.8186 25.3186L10.8148 25.3204L2.33934 10.6418C-2.69449 20.1094 0.639648 31.9347 9.99855 37.3383C12.0996 38.5509 14.3292 39.3393 16.588 39.7288L21.9549 30.4338C19.5495 30.8873 16.9769 30.5202 14.6964 29.2025Z" fill="#9C6644"/>
<path d="M10.8143 14.7154C12.773 11.3222 16.3371 9.42365 19.9986 9.4174V9.41311H36.9547C35.2768 6.72381 32.9353 4.39412 29.9987 2.69811C21.4399 -2.24322 10.7496 -0.13541 4.6373 7.21576L9.99605 16.4965C10.211 15.8894 10.48 15.2931 10.8143 14.7154Z" fill="#B08969"/>
<path d="M38.7674 13.1162H28.0492C30.8914 16.4373 31.4908 21.3253 29.1829 25.3204L20.7068 40.0034C27.3597 39.7605 33.7447 36.2088 37.3187 30.0182C40.4056 24.6712 40.7411 18.4912 38.7674 13.1162Z" fill="#DDB892"/>
</svg>
