<svg width="358" height="118" viewBox="0 0 358 118" fill="none" xmlns="http://www.w3.org/2000/svg">
<path d="M88.1067 41.7917H46.3734V54.175H75.9734C74.5067 71.5083 60.0634 78.9483 46.4234 78.9483C42.1023 78.9673 37.8207 78.1253 33.8286 76.4714C29.8365 74.8175 26.2138 72.3849 23.1722 69.3157C20.1305 66.2464 17.7307 62.6019 16.113 58.595C14.4953 54.5881 13.692 50.2991 13.75 45.9783C13.75 27.2317 28.2634 12.7983 46.4634 12.7983C60.5034 12.7983 68.7767 21.7483 68.7767 21.7483L77.4434 12.7683C77.4434 12.7683 66.31 0.378326 46.01 0.378326C20.16 0.378326 0.163361 22.195 0.163361 45.7583C0.163361 68.8483 18.9734 91.365 46.6634 91.365C71.02 91.365 88.85 74.6783 88.85 50.005C88.85 44.7983 88.0934 41.7917 88.0934 41.7917H88.1067Z" fill="#7F5539"/>
<path d="M122.297 32.8216C105.17 32.8216 92.8967 46.2117 92.8967 61.8217C92.8967 77.6683 104.797 91.305 122.497 91.305C138.517 91.305 151.64 79.0616 151.64 62.1616C151.64 42.8283 136.373 32.8183 122.297 32.8183V32.8216ZM122.463 44.3083C130.883 44.3083 138.863 51.1183 138.863 62.0883C138.863 72.8216 130.917 79.8283 122.423 79.8283C113.09 79.8283 105.757 72.355 105.757 62.0016C105.757 51.8683 113.023 44.3083 122.49 44.3083H122.463Z" fill="#B08969"/>
<path d="M186.233 32.8216C169.107 32.8216 156.833 46.2117 156.833 61.8217C156.833 77.6683 168.733 91.305 186.433 91.305C202.453 91.305 215.577 79.0616 215.577 62.1616C215.577 42.8283 200.31 32.8183 186.233 32.8183V32.8216ZM186.4 44.3083C194.82 44.3083 202.8 51.1183 202.8 62.0883C202.8 72.8216 194.853 79.8283 186.36 79.8283C177.027 79.8283 169.693 72.355 169.693 62.0016C169.693 51.8683 176.96 44.3083 186.427 44.3083H186.4Z" fill="#DDB892"/>
<path d="M248.943 32.855C233.223 32.855 220.87 46.6217 220.87 62.075C220.87 79.675 235.193 91.3483 248.67 91.3483C257.003 91.3483 261.437 88.0383 264.67 84.2417V90.0083C264.67 100.098 258.543 106.142 249.297 106.142C240.363 106.142 235.883 99.4983 234.297 95.7317L223.057 100.398C227.043 108.832 235.07 117.622 249.39 117.622C265.057 117.622 276.93 107.778 276.93 87.1317V34.6117H264.717V39.565C260.95 35.4983 255.79 32.855 248.95 32.855H248.943ZM250.077 44.3217C257.783 44.3217 265.697 50.9017 265.697 62.1383C265.697 73.5617 257.797 79.855 249.907 79.855C241.527 79.855 233.73 73.055 233.73 62.245C233.73 51.0183 241.83 44.3217 250.077 44.3217Z" fill="#7F5539"/>
<path d="M331.517 32.785C316.69 32.785 304.24 44.585 304.24 61.985C304.24 80.405 318.117 91.3283 332.907 91.3283C345.28 91.3283 352.907 84.5617 357.407 78.495L347.297 71.7683C344.673 75.835 340.287 79.8183 332.97 79.8183C324.75 79.8183 320.97 75.3183 318.627 70.9517L357.837 54.685L355.837 49.9183C352.05 40.585 343.21 32.785 331.517 32.785ZM332.027 44.0317C337.37 44.0317 341.213 46.8717 342.847 50.2783L316.66 61.2217C315.527 52.7483 323.56 44.0317 331.993 44.0317H332.027Z" fill="#B08969"/>
<path d="M285.517 89.595H298.397V3.40498H285.517V89.595Z" fill="#9C6644"/>
</svg>
