<svg width="40" height="44" viewBox="0 0 40 44" fill="none" xmlns="http://www.w3.org/2000/svg">
<path d="M12.6741 18.1873V17.8533C12.6741 17.0066 13.3099 16.3044 14.1293 16.246L20.0978 15.8209L28.3517 28.7858V17.4068L26.2272 17.1047V16.9462C26.2272 16.0894 26.8775 15.3826 27.7074 15.3372L33.1381 15.0406V15.8742C33.1381 16.2654 32.8652 16.6002 32.4914 16.6676L31.1844 16.9035V35.3312L29.5444 35.9328C28.1741 36.4355 26.6487 35.8974 25.8643 34.6349L17.8512 21.737V34.0474L20.3175 34.5507L20.2833 34.7948C20.1755 35.5591 19.5568 36.1373 18.8084 36.1729L12.6741 36.4641C12.593 35.642 13.1705 34.9068 13.9673 34.8175L14.7742 34.727V18.3131L12.6741 18.1873Z" fill="#7F5539"/>
<path fill-rule="evenodd" clip-rule="evenodd" d="M27.2076 0.736038L2.61496 2.52701C1.14187 2.6343 0 3.89754 0 5.41992V30.9342C0 32.3646 0.461622 33.7543 1.31214 34.8846L6.61469 41.9306C7.472 43.0697 8.82118 43.6971 10.217 43.6055L37.512 41.8133C38.9109 41.7214 40 40.5249 40 39.0799V10.0726C40 9.17858 39.5768 8.34081 38.8661 7.82832L30.2257 1.59695C29.345 0.96191 28.2795 0.657973 27.2076 0.736038ZM3.83446 5.8179C3.49241 5.54778 3.6552 4.98504 4.08488 4.95217L27.373 3.17044C28.115 3.11367 28.8523 3.33162 29.4523 3.7851L34.125 7.31625C34.3023 7.45031 34.2192 7.73971 33.9995 7.75246L9.33747 9.18314C8.59112 9.22644 7.85443 8.99256 7.26099 8.52392L3.83446 5.8179ZM8.18072 13.6682C8.18072 12.8136 8.82799 12.1077 9.65568 12.0596L35.7304 10.5449C36.5371 10.4981 37.2161 11.1598 37.2161 11.9927V37.1099C37.2161 37.9629 36.5712 38.6681 35.7452 38.7182L9.83546 40.2907C8.93775 40.3453 8.18072 39.6094 8.18072 38.6824V13.6682Z" fill="#7F5539"/>
</svg>
