<svg width="40" height="41" viewBox="0 0 40 41" fill="none" xmlns="http://www.w3.org/2000/svg">
<g clip-path="url(#clip0_5_184)">
<path fill-rule="evenodd" clip-rule="evenodd" d="M19.752 0.169174C8.79801 0.169174 0 9.03847 0 20.0862C0 28.2862 4.81401 35.148 11.786 38.3284C11.786 34.5934 11.76 35.0747 14.606 22.9299C13.042 19.7737 14.258 14.5627 17.76 14.5627C22.62 14.5627 19.318 21.7682 18.756 24.6037C18.258 26.7798 19.918 28.4543 21.91 28.4543C25.728 28.4543 28.216 23.5996 28.216 17.9104C28.216 13.5582 25.23 10.3782 20.084 10.3782C10.934 10.3782 8.61401 20.5683 11.786 23.7668C12.584 24.9749 11.786 25.0314 11.786 26.6125C11.232 28.2844 6.806 25.8543 6.806 19.5842C6.806 13.893 11.454 7.19945 20.914 7.19945C28.382 7.19945 33.362 12.7217 33.362 18.5803C33.362 26.4456 29.046 32.1369 22.74 32.1369C20.582 32.1369 18.59 30.9643 17.926 29.6252C16.72 34.3162 16.476 36.6944 14.606 39.3323C16.432 39.8344 18.258 40.1692 20.25 40.1692C31.204 40.1692 40 31.2998 40 20.2541C39.504 9.03905 30.706 0.169174 19.752 0.169174Z" fill="#7F5539"/>
</g>
<defs>
<clipPath id="clip0_5_184">
<rect width="40" height="40" fill="white" transform="translate(0 0.169174)"/>
</clipPath>
</defs>
</svg>
