<svg width="40" height="29" viewBox="0 0 40 29" fill="none" xmlns="http://www.w3.org/2000/svg">
<path fill-rule="evenodd" clip-rule="evenodd" d="M15.9769 19.3414V8.11777C19.9613 9.99263 23.0472 11.8038 26.6969 13.7564C23.6867 15.4259 19.9613 17.299 15.9769 19.3414ZM38.182 2.53574C37.4947 1.63022 36.3233 0.925347 35.0762 0.691987C31.4105 -0.00411276 8.54197 -0.00609277 4.8783 0.691987C3.87822 0.879467 2.98767 1.33263 2.22266 2.03671C-1.00072 5.02851 0.00933236 21.0726 0.786294 23.6715C1.11301 24.7964 1.53538 25.6077 2.0673 26.1402C2.75262 26.8443 3.69093 27.3291 4.76872 27.5465C7.78691 28.1708 23.3361 28.5198 35.0124 27.6402C36.0882 27.4527 37.0404 26.9524 37.7915 26.2184C40.7718 23.2385 40.5687 6.29344 38.182 2.53574Z" fill="#7F5539"/>
</svg>
